<svg xmlns="http://www.w3.org/2000/svg" xmlns:xlink="http://www.w3.org/1999/xlink" version="1.1" width="256" height="256" viewBox="0 0 256 256" xml:space="preserve">
<g style="stroke: none; stroke-width: 0; stroke-dasharray: none; stroke-linecap: butt; stroke-linejoin: miter; stroke-miterlimit: 10; fill: none; fill-rule: nonzero; opacity: 1;" transform="translate(1.4065934065934016 1.4065934065934016) scale(2.81 2.81)">
	<path d="M 50.892 89.405 c 0.271 -0.432 0.459 -0.81 0.695 -1.131 l 0.891 -1.229 l 1.751 -2.494 c 1.139 -1.68 2.247 -3.376 3.321 -5.09 c 2.122 -3.446 4.153 -6.939 6.008 -10.524 c 1.909 -3.553 3.644 -7.195 5.298 -10.863 c 1.67 -3.661 3.174 -7.392 4.57 -11.15 c 1.417 -3.75 2.668 -7.556 3.713 -11.398 c 1.077 -3.833 1.95 -7.703 2.596 -11.57 c 0.316 -1.935 0.503 -3.875 0.626 -5.798 c 0.113 -1.923 0.1 -3.841 -0.14 -5.69 c -0.407 -3.692 -1.813 -7.214 -4.816 -9.012 l 0.245 0.104 c -1.849 -0.699 -3.817 -1.014 -5.703 -0.624 c -0.94 0.186 -1.878 0.499 -2.732 1.012 c -0.87 0.478 -1.682 1.098 -2.431 1.804 c -1.509 1.406 -2.796 3.119 -3.864 4.972 c -1.08 1.848 -1.987 3.816 -2.779 5.831 c -1.552 4.048 -2.74 8.255 -3.642 12.525 c -0.479 2.129 -0.861 4.281 -1.214 6.437 c -0.368 2.153 -0.661 4.322 -0.939 6.49 c -0.103 0.806 -0.84 1.375 -1.646 1.272 c -0.549 -0.07 -0.988 -0.434 -1.18 -0.914 l -0.044 -0.113 c -2.412 -6.068 -5.109 -12.015 -8.253 -17.619 c -1.568 -2.8 -3.262 -5.508 -5.107 -8.04 c -1.869 -2.506 -3.916 -4.84 -6.21 -6.683 c -2.296 -1.823 -4.84 -3.106 -7.436 -3.404 c -1.297 -0.154 -2.605 -0.089 -3.911 0.189 l -0.977 0.245 l -0.972 0.32 L 15.72 7.626 c -0.292 0.123 -0.506 0.318 -0.766 0.464 c -0.528 0.266 -0.941 0.717 -1.41 1.079 c -0.205 0.207 -0.367 0.442 -0.561 0.652 c -0.09 0.11 -0.197 0.208 -0.277 0.325 l -0.211 0.37 c -0.128 0.254 -0.327 0.46 -0.417 0.743 c -0.105 0.272 -0.215 0.54 -0.333 0.806 c -0.112 0.27 -0.148 0.589 -0.233 0.878 c -0.084 0.291 -0.157 0.59 -0.172 0.922 c -0.324 2.549 0.079 5.507 0.893 8.425 c 0.793 2.937 1.954 5.873 3.236 8.774 c 1.282 2.907 2.722 5.776 4.244 8.625 c 1.518 2.849 3.12 5.671 4.796 8.46 c 1.66 2.797 3.361 5.583 5.096 8.351 l 5.294 8.271 l 5.392 8.236 l 5.431 8.233 l 2.707 4.131 C 49.278 86.642 49.965 87.949 50.892 89.405 z M 50.864 90 c -1.061 -1.162 -2.366 -2.471 -3.503 -3.82 l -3.23 -3.744 c -2.131 -2.515 -4.258 -5.035 -6.33 -7.6 c -2.092 -2.55 -4.149 -5.131 -6.162 -7.749 c -2.031 -2.604 -4.021 -5.245 -5.964 -7.924 c -3.895 -5.356 -7.628 -10.85 -11.044 -16.61 c -1.737 -2.861 -3.302 -5.848 -4.787 -8.903 c -1.461 -3.069 -2.781 -6.247 -3.758 -9.647 c -0.93 -3.396 -1.607 -7.072 -1.046 -11.061 c 0.043 -0.492 0.158 -0.992 0.297 -1.493 c 0.141 -0.499 0.235 -1.001 0.43 -1.493 l 0.624 -1.466 c 0.2 -0.49 0.542 -0.927 0.817 -1.386 l 0.442 -0.675 C 7.808 6.21 7.997 6.018 8.171 5.815 C 8.532 5.42 8.881 5.004 9.266 4.643 c 0.817 -0.658 1.597 -1.362 2.542 -1.85 c 0.457 -0.251 0.911 -0.557 1.378 -0.746 l 1.406 -0.535 L 15.974 1.1 c 0.469 -0.118 0.949 -0.213 1.423 -0.316 c 1.919 -0.355 3.941 -0.41 5.899 -0.096 c 3.957 0.611 7.396 2.617 10.142 4.964 c 2.763 2.376 4.961 5.135 6.886 7.989 c 1.925 2.857 3.52 5.86 4.966 8.9 c 2.86 6.1 3.356 7.192 5.317 13.52 l 0 0 c 0.919 -4.33 0.692 -3.192 1.824 -7.477 c 0.549 -2.146 1.182 -4.271 1.834 -6.393 c 0.654 -2.121 1.369 -4.227 2.202 -6.296 c 1.67 -4.12 3.61 -8.245 6.813 -11.671 c 0.805 -0.845 1.711 -1.624 2.734 -2.265 c 1.006 -0.659 2.134 -1.183 3.325 -1.517 c 2.398 -0.717 4.968 -0.48 7.288 0.139 c 0.042 0.011 0.082 0.026 0.12 0.044 l 0.125 0.06 c 2.122 1.02 3.963 2.73 5.164 4.726 c 1.236 1.986 1.976 4.166 2.443 6.328 c 0.894 4.353 0.81 8.689 0.341 12.901 c -0.94 8.448 -3.6 16.427 -6.665 24.128 c -1.562 3.847 -3.343 7.593 -5.224 11.279 c -1.901 3.677 -3.997 7.248 -6.199 10.743 c -2.265 3.458 -4.614 6.86 -7.226 10.062 c -1.29 1.611 -2.629 3.182 -4.033 4.693 c -0.7 0.757 -1.405 1.508 -2.14 2.23 l -1.114 1.083 C 51.77 89.294 51.276 89.674 50.864 90 z" style="stroke: none; stroke-width: 1; stroke-dasharray: none; stroke-linecap: butt; stroke-linejoin: miter; stroke-miterlimit: 10; fill: rgb(0,0,0); fill-rule: nonzero; opacity: 1;" transform=" matrix(1 0 0 1 0 0) " stroke-linecap="round"/>
</g>
</svg>